<svg fill="none" xmlns="http://www.w3.org/2000/svg">
<path fill-rule="evenodd" clip-rule="evenodd" d="M0.776672 125.777C0.776672 56.7411 56.7411 0.776672 125.777 0.776672C194.812 0.776672 250.777 56.7411 250.777 125.777C250.777 194.812 194.812 250.777 125.777 250.777C56.7411 250.777 0.776672 194.812 0.776672 125.777ZM114.849 177.873C114.657 176.913 114.657 175.889 114.849 174.801C117.793 174.545 119.905 174.257 121.185 173.937C122.529 173.617 123.361 172.977 123.681 172.017C124.065 170.993 124.257 169.361 124.257 167.121V153.134L137.246 140.145H169.377V122.481C169.377 119.793 169.217 117.873 168.897 116.721C168.577 115.569 167.777 114.833 166.497 114.513C165.217 114.129 163.073 113.809 160.065 113.553C159.937 112.593 159.937 111.569 160.065 110.481C161.281 110.481 162.817 110.513 164.673 110.577C166.529 110.577 168.385 110.609 170.241 110.673H174.753H179.361C181.153 110.609 182.945 110.577 184.737 110.577C186.593 110.513 188.161 110.481 189.441 110.481C189.569 111.441 189.569 112.465 189.441 113.553C186.433 113.809 184.257 114.097 182.913 114.417C181.569 114.737 180.737 115.409 180.417 116.433C180.097 117.393 179.937 118.993 179.937 121.233V165.873C179.937 168.497 180.097 170.417 180.417 171.633C180.737 172.785 181.537 173.553 182.817 173.937C184.161 174.257 186.369 174.545 189.441 174.801C189.569 175.889 189.569 176.913 189.441 177.873C188.097 177.873 186.497 177.841 184.641 177.777H179.073C177.281 177.713 175.777 177.681 174.561 177.681C173.409 177.681 171.937 177.713 170.145 177.777H164.769C162.977 177.841 161.441 177.873 160.161 177.873C159.969 176.913 159.969 175.889 160.161 174.801C163.105 174.545 165.217 174.257 166.497 173.937C167.777 173.617 168.577 172.977 168.897 172.017C169.217 170.993 169.377 169.361 169.377 167.121V144.369H134.817V165.873C134.817 168.561 134.977 170.481 135.297 171.633C135.617 172.785 136.417 173.553 137.697 173.937C139.041 174.257 141.217 174.545 144.225 174.801C144.353 175.889 144.353 176.913 144.225 177.873C142.945 177.873 141.377 177.841 139.521 177.777H133.953C132.161 177.713 130.657 177.681 129.441 177.681C128.289 177.681 126.785 177.713 124.929 177.777H119.457C117.665 177.841 116.129 177.873 114.849 177.873ZM134.001 91.0984L123.699 101.4L123.185 70.7607L98.9926 132.681C98.5446 132.873 97.8406 133.001 96.8806 133.065C95.9206 133.129 95.0886 133.161 94.3846 133.161L71.6326 72.7767L70.0966 122.217C70.0326 124.329 70.1286 125.865 70.3846 126.825C70.6406 127.721 71.4086 128.361 72.6886 128.745C73.9686 129.129 76.1126 129.513 79.1206 129.897C79.3766 130.921 79.3766 131.913 79.1206 132.873C78.4806 132.873 77.3606 132.841 75.7606 132.777H71.0566C69.5206 132.713 68.4006 132.681 67.6966 132.681C67.3126 132.681 66.5446 132.713 65.3926 132.777H61.7446H58.0006C56.9126 132.841 56.1766 132.873 55.7926 132.873C55.6646 131.849 55.6646 130.857 55.7926 129.897C58.8006 129.513 60.9446 129.129 62.2246 128.745C63.5046 128.361 64.3046 127.593 64.6246 126.441C65.0086 125.289 65.2326 123.465 65.2966 120.969L67.1206 76.1367C67.2486 73.8967 67.1526 72.2967 66.8326 71.3367C66.5126 70.3767 65.6486 69.7367 64.2406 69.4167C62.8966 69.0327 60.6566 68.7127 57.5206 68.4567C57.4566 67.4327 57.4566 66.4407 57.5206 65.4807C59.6966 65.4807 61.9366 65.5127 64.2406 65.5767C66.5446 65.6407 69.1046 65.6727 71.9206 65.6727H75.7606C77.3606 65.6727 78.8326 65.6407 80.1766 65.5767L100.049 118.185L120.593 65.5767C121.937 65.6407 123.345 65.6727 124.817 65.6727H128.561H131.345C132.753 65.6087 134.257 65.5767 135.857 65.5767H140.369C141.777 65.5127 142.737 65.4807 143.249 65.4807C143.441 66.4407 143.441 67.4327 143.249 68.4567H143.057C140.113 68.7767 137.969 69.0967 136.625 69.4167C135.281 69.6727 134.449 70.3127 134.129 71.3367C133.873 72.2967 133.745 73.8967 133.745 76.1367L134.001 91.0984ZM168.579 78.7767L78.7767 168.579L82.009 171.812L171.812 82.009L168.579 78.7767Z" fill="white"/>
</svg>
